<svg xmlns="http://www.w3.org/2000/svg" width="215" height="79.939" viewBox="0 0 215 79.939">
  <metadata><?xpacket begin="﻿" id="W5M0MpCehiHzreSzNTczkc9d"?>
<x:xmpmeta xmlns:x="adobe:ns:meta/" x:xmptk="Adobe XMP Core 5.6-c142 79.160924, 2017/07/13-01:06:39        ">
   <rdf:RDF xmlns:rdf="http://www.w3.org/1999/02/22-rdf-syntax-ns#">
      <rdf:Description rdf:about=""/>
   </rdf:RDF>
</x:xmpmeta>
                                                                                                    
                                                                                                    
                                                                                                    
                                                                                                    
                                                                                                    
                                                                                                    
                                                                                                    
                                                                                                    
                                                                                                    
                                                                                                    
                                                                                                    
                                                                                                    
                                                                                                    
                                                                                                    
                                                                                                    
                                                                                                    
                                                                                                    
                                                                                                    
                                                                                                    
                                                                                                    
                           
<?xpacket end="w"?></metadata>
<defs>
    <style>
      .cls-1 {
        fill: #44546a;
        fill-rule: evenodd;
      }
    </style>
  </defs>
  <path id="Logo" class="cls-1" d="M437.985,1026.4H453.92V985.066c-0.013-12.33-8.3-18.22-17.591-18.014-5.573.125-10.869,2.338-16.209,5.97v-4.9l-15.13,7.8V1026.4h15.935V985.809a14.262,14.262,0,0,1,11.518-5.417c3.865,0,5.551.935,5.542,9.471V1026.4Zm25.506,0h15.935V985.358l-15.935,8.208V1026.4Zm15.935-45.976V968.043l-15.935,8.21v12.382Zm43.463,45.976h15.935V985.066c-0.012-12.33-8.294-18.22-17.588-18.014-5.576.125-10.872,2.338-16.211,5.97v-4.9l-15.13,7.8V1026.4H505.83V985.809a14.262,14.262,0,0,1,11.517-5.417c3.868,0,5.555.935,5.542,9.471V1026.4Zm41.8,4.38V985.358l-15.934,8.208v35.364c-0.01,4.49-1.982,4.61-9.933,3.81v13.23c15.263,3.15,25.843-.91,25.867-15.19m0-50.356V968.043l-15.934,8.21v12.382ZM605.8,1026.4h14.107V989.865c0.006-17.78-9.235-22.863-22.5-22.848-10.528,0-18.279,4.478-22.977,11.647l10.424,8.117a17.51,17.51,0,0,1,5.93-6.177c3.136-1.772,9.889-2.135,12,.681,1.066,1.419,1.511,3.775,1.515,7.527-17.244,1.43-32.678,7.394-32.743,22.8-0.015,15.42,17.582,21.35,33.593,10.61a21.535,21.535,0,0,0,.652,4.18m-1.5-26.571v10.041c-3.177,2.73-7.106,5.53-11.466,5.53-3.446,0-5.37-2.28-5.357-5.48-0.019-5.92,8.2-8.83,16.823-10.091m-21.152,40.181v5.06h-1.426v-12.15h3.364a5.347,5.347,0,0,1,3.336.85,3.092,3.092,0,0,1,1.079,2.58,3.236,3.236,0,0,1-2.467,3.26l3.33,5.46h-1.687l-2.97-5.06h-2.559Zm0-1.21H585.1a3.375,3.375,0,0,0,2.216-.59,2.2,2.2,0,0,0,.706-1.78,2.047,2.047,0,0,0-.716-1.75,3.957,3.957,0,0,0-2.3-.53h-1.855v4.65Zm14.625,6.27-4.16-10.77h-0.067c0.076,0.85.117,1.86,0.117,3.04v7.73h-1.319v-12.15h2.148l3.886,10.02h0.068l3.917-10.02h2.132v12.15h-1.426v-7.83c0-.9.037-1.87,0.117-2.93h-0.067l-4.194,10.76h-1.152Zm15.515,0-4.16-10.77H609.06c0.077,0.85.116,1.86,0.116,3.04v7.73h-1.317v-12.15h2.15l3.883,10.02h0.068l3.917-10.02h2.132v12.15h-1.425v-7.83c0-.9.036-1.87,0.116-2.93h-0.068l-4.193,10.76h-1.152Z" transform="translate(-405 -967.031)"/>
</svg>
